<?xml version="1.0" standalone="no"?>
<!DOCTYPE svg PUBLIC "-//W3C//DTD SVG 20010904//EN"
 "http://www.w3.org/TR/2001/REC-SVG-20010904/DTD/svg10.dtd">
<svg version="1.0" xmlns="http://www.w3.org/2000/svg"
 width="400.000000pt" height="400.000000pt" viewBox="0 0 400.000000 400.000000"
 preserveAspectRatio="xMidYMid meet">

<g transform="translate(0.000000,400.000000) scale(0.100000,-0.100000)"
fill="#000000" stroke="none">
<path d="M0 2000 l0 -2000 2000 0 2000 0 0 2000 0 2000 -2000 0 -2000 0 0
-2000z m2425 1625 c341 -77 561 -256 620 -506 63 -270 -81 -599 -350 -797 -33
-24 -62 -45 -64 -47 -1 -2 25 -18 58 -35 189 -95 247 -289 185 -622 -8 -46
-46 -202 -84 -348 -81 -310 -92 -369 -92 -470 0 -117 43 -208 119 -253 19 -11
31 -23 26 -27 -10 -9 -169 -47 -253 -60 -159 -24 -313 -5 -389 50 -47 32 -83
112 -89 193 -6 91 9 183 75 437 30 118 65 257 79 308 38 151 57 271 57 377 1
87 -2 107 -25 157 -31 67 -78 103 -156 118 -51 9 -159 4 -181 -9 -6 -4 -80
-335 -165 -736 -85 -402 -160 -754 -166 -782 l-12 -53 -305 0 c-286 0 -305 1
-301 18 3 9 130 604 283 1322 153 718 281 1308 284 1312 7 9 611 91 618 84 3
-2 -41 -215 -96 -473 -56 -257 -101 -472 -101 -477 0 -5 33 -7 73 -4 175 11
346 149 452 363 63 127 88 242 83 375 -6 133 -30 198 -100 276 -87 94 -194
134 -363 134 -247 0 -473 -57 -660 -166 -99 -59 -254 -211 -308 -304 -94 -162
-132 -317 -131 -535 0 -154 -1 -150 49 -267 6 -16 0 -18 -53 -18 -119 0 -245
44 -304 107 -65 68 -106 226 -93 352 23 218 155 437 370 619 253 213 576 356
920 406 70 10 422 -3 490 -19z"/>
</g>
</svg>
