<?xml version="1.0" encoding="UTF-8" standalone="no"?>
<!-- Created with Inkscape (http://www.inkscape.org/) -->

<svg
   xmlns:dc="http://purl.org/dc/elements/1.1/"
   xmlns:cc="http://creativecommons.org/ns#"
   xmlns:rdf="http://www.w3.org/1999/02/22-rdf-syntax-ns#"
   xmlns:svg="http://www.w3.org/2000/svg"
   xmlns="http://www.w3.org/2000/svg"
   xmlns:sodipodi="http://sodipodi.sourceforge.net/DTD/sodipodi-0.dtd"
   xmlns:inkscape="http://www.inkscape.org/namespaces/inkscape"
   sodipodi:docname="Tennis Ball.svg"
   id="svg8"
   version="1.1"
   viewBox="0 0 79.374998 52.916668"
   height="200"
   width="300"
   inkscape:version="0.92.3 (2405546, 2018-03-11)">
  <sodipodi:namedview
     inkscape:window-maximized="0"
     inkscape:window-y="0"
     inkscape:window-x="-8"
     inkscape:window-height="991"
     inkscape:window-width="1151"
     inkscape:guide-bbox="true"
     showguides="true"
     units="px"
     showgrid="false"
     inkscape:current-layer="layer1"
     inkscape:document-units="px"
     inkscape:cy="102.83225"
     inkscape:cx="163.39701"
     inkscape:zoom="2.1366456"
     inkscape:pageshadow="2"
     inkscape:pageopacity="0.0"
     borderopacity="1.0"
     bordercolor="#666666"
     pagecolor="#ffffff"
     id="base" />
  <defs
     id="defs2" />
  <metadata
     id="metadata5">
    <rdf:RDF>
      <cc:Work
         rdf:about="">
        <dc:format>image/svg+xml</dc:format>
        <dc:type
           rdf:resource="http://purl.org/dc/dcmitype/StillImage" />
        <dc:title></dc:title>
      </cc:Work>
    </rdf:RDF>
  </metadata>
  <g
     inkscape:label="Layer 1"
     inkscape:groupmode="layer"
     id="layer1"
     transform="translate(0,-244.08332)">
    <path
       style="opacity:1;fill:#b9ff00;stroke:none;stroke-width:3.99999976;stroke-miterlimit:4;stroke-dasharray:none;stroke-dashoffset:0;stroke-opacity:1;fill-opacity:1"
       d="M150.0 42.0C147.580325244 41.8694787412 148.947036404 41.9389261445 148.035503041 42.0355962156C148.347550899 42.1130653625 145.735434434 41.5634436463 146.074533642 42.1375744493C146.523005542 41.0776604981 145.733918835 44.1985384119 144.117369688 42.3059505587C141.880934376 42.5613135313 141.448409239 42.4740146974 142.166811597 42.5405658354C141.049722699 43.0884273586 142.375898348 41.5130908077 140.225280642 42.8411576052C140.499847917 42.7107463098 140.027637615 44.7403147969 138.296247297 43.2071302447C137.025947615 42.8058736692 135.35516783 43.3618933142 136.379699043 43.6384701254C137.115607825 42.2497863175 133.995859295 45.7974002523 134.479613199 44.134283313C135.177007192 45.8741978104 133.885813154 42.5840232211 132.59728846 44.6941808831C132.800718346 46.5917718427 133.00622913 46.9769234102 130.734319828 45.3177169804C131.563427721 46.1135702414 128.005524324 43.8634838374 128.894685914 46.0035180012C127.022219398 47.3129953212 128.529146353 45.846670912 127.078298268 46.7515988442C126.682333661 47.1972205631 124.025494616 46.2808619774 125.288870951 47.5604482676C126.291615727 49.5659763788 123.405853447 46.7483291968 123.527019957 48.4298020995C121.136205596 50.3095431081 123.311230357 47.4838833758 121.796244758 49.357950167C121.21215968 48.2493942367 121.967445422 49.4134396837 120.098153589 50.343980549C121.145089686 52.2682666137 118.027323832 52.148509157 118.434661632 51.3867598563C118.28879438 51.1664762207 116.676920885 52.4600915824 116.806365624 52.4859912421C114.990696658 53.5992251348 114.350783758 52.234945949 115.217532011 53.6387931653C115.560696932 55.6281830616 114.150066453 55.4955470632 113.667936065 54.8453000752C114.74941418 55.8358833195 111.926086372 55.6332328441 112.159580508 56.1040642658C110.296257888 58.5077392074 110.727927039 57.4138638441 110.694772375 57.4132014737C108.370769359 56.3006125294 111.669302898 58.3485728988 109.275638317 58.7707434202C107.323324853 60.5314235255 110.04214087 60.9498512094 107.903398543 60.1754197782C108.021045467 59.6266348165 107.295288488 62.9516160079 106.58008 61.625C107.354785534 61.9903314672 109.657468702 60.495573252 108.35073265 62.4188270522C110.295041252 60.9408918228 107.818037139 64.2925015295 110.140636626 63.1691117604C110.521948104 62.7519859753 113.155424858 61.6500753729 111.947482167 63.8769433774C110.678840435 63.1696810918 111.207486618 66.1498926453 113.77031872 64.5437713547C112.611416761 63.8065546189 115.776091238 65.8501220067 115.607189414 65.1704951712C117.897997817 66.2954790571 115.211515421 64.1228948983 117.45695912 65.758180086C117.845509446 67.6740107764 117.813556492 67.3388786556 119.318882865 66.3078664529C121.030742584 67.3496036595 119.527771318 68.0174782124 121.190434725 66.819982417C122.336223698 66.981587307 122.812977188 65.6102410465 123.07218542 67.2957330957C125.487851515 69.1351102071 122.931608388 69.1613850983 124.961840061 67.7354728251C127.276105761 66.8265639019 126.436759499 69.2400710878 126.860028257 68.1401844284C127.245287764 67.1401943281 129.846319998 68.6477862469 128.764410768 68.5101211943C128.473169784 69.342680384 131.648262789 68.6285990592 130.675518336 68.8460695006C130.770924631 67.4882054763 131.180891548 68.9458360586 132.592765121 69.1485024487C134.009226377 68.3948924681 135.650536403 70.8703802766 134.514248574 69.4176646569C136.5429315 71.2765270684 136.206836906 68.5128637055 136.44099944 69.6541782657C137.959597356 71.0492436767 137.249855944 68.1693871645 138.371403193 69.8582552423C137.713429047 69.5401762153 140.209466545 68.6491206644 140.303991302 70.0301527979C141.636755247 69.2268041235 142.187021815 70.3663274569 142.240082086 70.1703335647C142.945335893 68.6603113544 144.688747088 69.178249054 144.178625655 70.2789948174C143.816428454 71.2998249297 145.707455238 71.1020794514 146.11862663 70.3563434868C147.91084718 69.7545935991 145.500825976 68.8653039111 148.058219348 70.4025798193C148.981702083 71.3266042647 148.176726244 70.8389376038 150.0 70.417969C151.911065455 71.0738392483 151.989120573 69.0889801531 151.939835085 70.4026062549C151.097550106 69.2975959552 152.162445438 70.7680791559 153.879400345 70.3563887839C152.977586106 69.3341789408 155.829318686 70.9739111324 155.818071892 70.2791141913C155.128637539 70.2306898692 158.466007409 70.241301464 157.75532874 70.1705598367C158.840690044 70.7429274818 159.802512107 69.4527778355 159.689263947 70.0305913344C161.387539191 71.6939740756 162.648764214 68.2255975714 161.622448719 69.8587039469C162.692464788 70.9899896316 163.775500113 68.8272966762 163.550561227 69.6549416669C165.373958829 70.4918688587 166.624723149 70.5914646387 165.476110688 69.4186739271C164.53892477 69.9553473455 165.144800996 68.3009772109 167.396396831 69.1497960868C168.492723954 69.9249388386 169.370487445 70.5856540577 169.313225045 68.847559097C170.911911955 69.2566458157 171.584439245 69.7075455865 171.224004607 68.5118054778C171.429904558 66.6089819099 170.702006856 69.9904278833 173.128109114 68.142067231C175.356530764 68.2865119641 172.748548493 68.5641599997 175.02605852 67.7375596297C176.382157974 69.381798873 176.160924816 65.9398207887 176.914495895 67.2982759954C179.116987521 67.8827444943 177.608470352 68.4660004878 178.796071422 66.8227646217C178.448669543 66.3433526719 180.19060038 66.1777794306 180.66760668 66.310860808C181.338538999 64.1801858661 182.960922512 66.9945268222 182.528705638 65.7616481988C184.375103971 65.5062775587 185.578215492 65.2137833239 184.376650456 65.1748202886C183.783402682 64.2604482166 186.85247214 66.2857293145 186.212609975 64.5487390114C185.711392478 65.8275062104 188.410671466 63.7627545373 188.035281799 63.8823439655C189.302191236 62.2950344029 189.5058883 61.9353135736 189.841704119 63.175091686C190.663689018 64.0690782069 189.302137185 64.2176308359 191.630448551 62.4257684945C191.567655298 60.484608784 190.896031574 60.4105112247 193.40039 61.632812C193.192476959 60.3705070331 191.001429223 61.9196051485 192.076374862 60.1819780324C191.497636174 58.301271986 192.875139267 58.8112621744 190.704882579 58.777609665C191.89441328 57.6902500358 189.925053837 57.2860416856 189.286083831 57.4199254927C187.499567978 56.0416818147 186.772470509 57.2427127897 187.821946077 56.1109220041C186.199654514 54.4697010093 186.385507859 54.0466597159 186.314264395 54.8522425113C185.240136537 52.6178665281 184.029116012 53.8681818906 184.765776537 53.646097959C185.999352962 51.9308393022 182.009277854 53.6518075597 183.176483471 52.4924695095C181.844933558 53.6616036091 182.877182838 51.7357553757 181.549681479 51.3937515742C180.19037953 51.8099305809 178.907448814 50.3072381493 179.886519006 50.3506616332C177.768907301 48.4878188876 180.059705187 50.9475116818 178.188382882 49.3641019587C179.420258305 48.1784250238 175.725899962 47.3183535854 176.458930166 48.436151319C175.421470363 49.1220010307 175.137307457 47.1821456829 174.698090239 47.5667527029C174.920259078 48.0249698072 173.088304124 45.9473258728 172.909448746 46.7576954903C172.79283622 46.4982117068 172.063775468 44.9907245269 171.093609672 46.0092671437C171.648075407 44.4783287362 171.325119231 44.4874051426 169.254166249 45.3229647013C170.373177858 43.6871996744 168.549361446 43.3740894019 167.3928638 44.6993927491C165.930793295 45.5458091828 164.44932387 45.1649246472 165.511816547 44.1392400593C163.143025568 43.3441732022 162.699917896 42.3613987203 163.611640293 43.6427580781C161.135326063 45.3252371256 162.16919266 44.2012831342 161.697313864 43.2112463411C162.02430704 43.7826597408 161.858172393 43.5230401385 159.768586963 42.844624482C157.181396191 43.1236718453 158.247835766 40.7267855678 157.827867553 42.5434395361C157.944926681 43.7843068788 156.170898697 43.278909077 155.878092206 42.3081787971C155.938841652 42.7957767963 155.972540294 41.9656013343 153.922141463 42.1391387504C153.345116124 42.6546173901 152.498641368 42.459302231 151.961773526 42.0363962867C150.143620461 40.0281061547 149.472242303 42.0984786719 150.0 42.0C148.918204616 41.3563326612 149.429022009 42.6326917184 150.0 42.0M196.04688 64.806641C195.787260767 65.5870762962 193.168857184 65.3469279686 194.256025203 65.6400632527C194.599778677 66.2159085303 193.680455918 68.1401391081 192.445661377 66.4297586598C193.437784639 64.9120147355 190.492932759 67.977614523 190.616997083 67.1770845286C191.670375648 66.3519799684 187.93967943 66.9207461733 188.77197403 67.8829406289C187.366111072 68.3302441853 188.435205536 69.523272235 186.911218252 68.5486014173C186.68585327 68.198342212 184.867133723 67.7918544122 185.036475671 69.1747982237C185.357109077 68.479828444 181.899613354 69.4103317914 183.15065145 69.7618611629C181.673002127 68.7388406115 181.006417997 69.0121513464 181.252261331 70.3114046986C182.083790065 70.2324968975 178.722923341 69.2672059053 179.343808358 70.8237146522C176.979345006 72.1096878627 176.326912067 71.7483235558 177.42633542 71.2994771033C177.714013847 69.5741307511 177.207912169 71.7355194179 175.500333457 71.7394408049C174.501327182 72.270886654 173.086910441 73.2615255073 173.566668854 72.1441903932C174.865058855 71.7764473674 171.298340495 73.0324337614 171.624755891 72.5145244695C170.348795374 73.0243004108 169.678300861 74.5276069368 169.677008548 72.8506052702C169.833259864 73.5926262102 167.098749583 74.3406517454 167.724994049 73.1527966278C166.052775686 72.5695316015 168.319359226 72.959384833 165.768036726 73.4217713218C165.825567146 73.1684880692 164.159212944 71.9681411674 163.80619449 73.6579917723C164.990769416 74.7270893365 162.288785748 75.7107303926 161.840954885 73.8617139955C159.804852978 72.5403749911 159.334700901 74.8493447118 159.872238056 74.0333474966C161.17629381 73.7812400444 159.1920599 74.0814730104 157.901677424 74.1731245849C158.309940771 72.7897937893 155.428774832 72.6657219252 155.928494905 74.2814357189C153.666999399 75.6046884134 153.083939565 73.4418973864 153.953546411 74.3585147232C153.563458888 75.3601153946 150.927366316 73.1418378476 151.977575004 74.4045987945C153.120533033 74.7424887437 149.981828843 74.1861593228 150.0 74.419922C151.014953442 74.2596639889 148.679641736 75.5670123593 148.024501132 74.4046289354C146.888519084 73.6653008979 146.987445867 75.8579116873 146.051109804 74.3586516289C146.032723782 72.9351693824 143.276032577 74.8572244329 144.077675373 74.2817074079C144.679038357 74.7285831206 143.586158282 73.0039531649 142.104976452 74.1735119402C141.735012247 75.8146208509 140.645083243 72.6432806416 140.134988746 74.0338711888C139.488781991 73.3860612763 138.179245573 72.959937783 138.168328316 73.8625327971C135.548066029 72.6568460002 136.280095272 72.4345545035 136.203693981 73.6590107415C136.264081485 72.6789498717 133.916622737 74.0035341359 134.243177314 73.4231039989C135.164761881 74.1006171161 131.773056768 71.8622974118 132.286624435 73.1543551979C132.387479179 71.8111628829 130.890716374 73.7079174559 130.334752762 72.8523634231C128.094169417 71.3692175714 128.528635373 72.2391799945 128.389590055 72.5169337679C126.852660096 70.6772605491 125.84360099 72.8422663493 126.44994696 72.1472871288C124.722647195 71.5961444037 123.389747649 73.1206633522 124.516747728 71.7429222429C122.899841254 71.6215540163 121.315277288 72.6953183058 122.591100127 71.3033437182C123.19745608 70.2221542539 122.783549524 70.5066871747 120.673790326 70.8279418616C119.846814095 70.9807435167 118.544818563 71.7169211581 118.767151695 70.3164719039C117.623921362 71.0425670261 117.115854063 68.4761551817 116.869550839 69.7675529746C118.193285196 67.6798873837 115.106903189 68.8554723112 114.983650662 69.1808887113C114.473419226 70.6251935512 113.754984904 69.3372575548 113.110565731 68.5557076213C111.297018084 66.7313836459 112.731600001 66.6254721909 111.25081966 67.8909275127C110.685467264 67.2489434381 111.467312308 68.2376459316 109.407282179 67.1862207495C109.6986119 66.2916412392 106.959479931 66.4279867837 107.578429514 66.4394525676C106.086325244 64.505984301 104.572503028 66.2649317483 105.768851262 65.6507846005C105.133168383 66.4182476826 106.099960894 63.4676022323 103.97852 64.818359C103.647667552 66.2520113967 103.45163812 64.0552639508 102.793821521 66.419055039C103.941170668 65.7172133193 103.232234292 68.3396307794 101.665368693 68.0585548823C99.43116836 68.034877971 101.067235111 67.816433571 100.593889388 69.7357280136C101.809825875 71.1918794391 101.738155604 71.687217175 99.5803057571 71.4491938287C100.533527762 70.5666742723 99.1078957808 71.8185336254 98.6259134346 73.1968713669C99.0370616965 73.9622823004 99.4579678901 74.25659267 97.7317169508 74.9770554348C97.2160749051 76.6859104273 97.7757232886 77.3875806588 96.8995429073 76.7860908696C95.631333689 75.679061227 95.5390234405 79.6419374352 96.1296684052 78.623344917C96.8022873904 78.8018024986 96.1433239729 78.8652695481 95.423623129 80.4851411701C96.4337302548 81.6292731633 95.3389667421 80.8483532331 94.7820179689 82.3696746109C93.8156047744 84.2131608876 94.1310375508 81.6482730163 94.2055542916 84.2747598425C92.5497067584 86.6484579895 94.6536770293 87.3930552481 93.6944857821 86.1997286267C93.0109722334 86.7454601434 94.1444126454 87.4360187647 93.2498019509 88.1411350154C91.2070896431 87.5508372427 92.3831212809 88.7571060947 92.8722279831 90.0956019137C90.8849812504 91.0496915694 91.6387651597 91.399841873 92.5620294399 92.0613550477C93.6320644065 93.4852166019 91.892913009 94.8834226907 92.319414027 94.0371014293C94.04994867 93.2435648644 92.4183599914 93.8193191547 92.1447613134 96.0199241761C91.6011203174 98.0705921584 91.198733486 97.7906768782 92.0382365564 98.0081187249C90.3074172527 97.6189811611 93.8532392955 98.3929902668 92.0 100.0C91.6276278185 100.904681016 90.5207873438 100.802523196 92.0377853149 101.977173928C93.1497654782 103.895634698 92.1959413456 101.625116656 92.1428668778 103.95089389C93.8166253768 106.194062503 93.9318106238 107.039063061 92.3151403325 105.919851087C90.9930270697 108.534349657 91.8908148627 109.081718237 92.5545026946 107.882422539C90.8437484149 109.59826805 93.3825927788 110.918505508 92.8607213478 109.836208029C91.8205617749 110.715164789 93.8862933611 113.06306165 93.2332163062 111.777628125C91.5280416781 112.693761673 91.9157826566 113.893322073 93.6718899187 113.706164877C95.7105946897 113.608908859 94.5069562307 116.808999033 94.1758813361 115.617992744C96.0288889874 114.449842353 96.3614680104 115.912866077 94.7449571169 117.512232171C94.0832783045 117.659021282 95.7073298444 118.617799879 95.3781397028 119.385582584C95.1529962242 120.904893176 95.5018454195 119.231481516 96.0746690154 121.235919899C97.2172804112 120.458255205 96.0573287691 122.070846922 96.8343485873 123.062586716C97.9712589447 123.6413244 99.0211927794 125.559086284 97.6558844471 124.862290728C98.6880845237 125.369632407 100.166453891 127.587576601 98.5378172058 126.631952892C97.5232950191 127.938554038 100.773102774 126.185261091 99.4792932775 128.370035434C99.1889106735 128.251294555 99.3647435561 128.711013078 100.479703679 130.075415054C102.816772602 130.808021293 102.391971623 130.697830762 101.537595539 131.745583109C103.807368581 132.364558023 101.084250859 130.841767386 102.652078516 133.379116433C104.629876302 134.659808076 103.085172585 135.506044137 103.82227 134.97461C103.86993547 136.557540259 104.524696523 135.392558723 105.618177827 134.119624727C106.920269288 133.038557587 105.519079703 132.607491084 107.434438718 133.30899283C106.439113634 133.834481467 108.55115159 131.601375672 109.269770198 132.541343439C110.639531817 132.439578503 108.873108953 133.79300386 111.1221608 131.815772485C111.830189373 132.075808077 111.765330405 132.823409603 112.990923621 131.130988879C112.412831629 131.035056681 114.641609513 128.92480996 114.874253255 130.486257144C117.437515039 131.816762049 116.724779596 131.094556455 116.769183901 129.881253667C116.440421459 128.617395947 119.943831594 131.347504252 118.677159658 129.314330778C120.274633089 129.644006553 119.001075582 130.224444003 120.595625456 128.785206903C120.544915942 127.909108074 123.126888418 128.117303533 122.523494812 128.293187129C122.337946703 129.575983205 123.719778034 128.066921914 124.460238579 127.837509978C125.180660759 127.51092097 125.414746095 126.08337901 126.404953057 127.417581857C128.988453009 129.160507953 127.983345948 127.804938191 128.356819157 127.032843745C128.530884956 126.599314786 131.232456307 127.706122152 130.314979579 126.682791033C130.315821877 125.88474353 130.39316754 126.711574612 132.280170274 126.366714308C132.588083693 127.163644767 131.706063899 125.575318466 134.250259342 126.084431729C136.863614959 124.662222919 135.945500571 125.665545178 136.223268416 125.835678321C138.225789023 126.958056885 137.575349483 124.741831287 138.201708132 125.619680863C140.099523589 124.791520371 141.367611106 124.705710221 140.183484 125.436293529C141.898157127 126.614793452 140.585713032 126.226701957 142.166922434 125.285269113C144.733344381 125.113419239 144.205660934 125.92248456 144.151810018 125.166238393C145.896712636 125.946080133 147.040095388 123.226960035 146.138766688 125.078847215C144.859398133 123.573929996 147.991950173 123.805283422 148.127034981 125.02286301C150.34270731 123.69894335 149.688654871 126.502571404 150.11719 124.99805C152.429626672 125.696688099 152.32370915 124.488918405 152.106951346 125.004308106C151.122405769 125.003681398 153.173212974 125.519159474 154.09639287 125.04177055C155.636304607 123.952940751 154.696077521 123.962345614 156.085997867 125.110724354C157.627528113 126.039151999 157.255811045 126.459589236 158.073581115 125.211382557C157.559851114 127.226113932 161.357915038 125.236263169 160.059988404 125.344099278C161.767358412 126.64784246 160.140583639 124.02674667 162.04312232 125.509073071C161.515204998 123.853580498 164.45836323 126.050031467 164.023107605 125.706666318C165.916614824 125.183399209 166.512265225 124.799365497 165.999139573 125.93719962C167.606121169 126.181912274 166.551165726 124.72408342 167.971357473 126.201144671C169.05321355 125.020849547 169.965489944 126.007801404 169.939020133 126.498919666C170.018359515 125.676297044 173.001977868 126.021438924 171.901846408 126.831057202C170.946899868 127.71741162 174.295056892 127.061094263 173.857299991 127.197718624C174.872119433 125.889737146 173.727694909 128.92069438 175.806360264 127.599734444C175.566307057 127.757609691 175.809381266 125.913356206 177.747886126 128.037620085C178.619728816 127.247217045 178.845844454 128.441593313 179.679826639 128.511690642C180.588774501 127.245995663 179.211678388 129.313907549 181.603511189 129.023160432C180.750273913 129.290625127 184.796716368 130.684120389 183.515866506 129.572192224C183.905539274 127.807789473 184.022212229 130.189449976 185.416665646 130.15975788C186.384075404 131.893728131 187.340001657 131.652685805 187.306159411 130.787154444C189.916221075 130.376669165 189.521598349 129.603583428 189.180653002 131.454459864C190.550711193 133.003830003 190.057042989 131.515732675 191.039844032 132.162955771C189.706401749 133.753607789 193.161617946 132.653851312 192.88240466 132.913719781C191.802934558 133.173038173 193.678876518 131.674677265 194.707057263 133.708006164C193.826312202 133.276136492 194.313859796 133.798920331 196.51172 134.54688C196.696568183 136.002342808 198.712667223 131.823696039 197.649539182 132.964811308C196.436026359 133.205679561 197.12316066 129.957221337 198.733693483 131.345238887C198.871392678 132.740755824 199.565687306 130.241036091 199.763317431 129.689316097C201.20510009 128.788983981 198.682190238 127.124474307 200.735993504 128.000959758C202.718694246 126.919799295 201.373686784 128.103380259 201.651670544 126.280340968C201.595780093 125.850378349 202.385407372 124.076595725 202.50870095 124.530577071C204.152151174 122.24486767 202.988591153 122.04108368 203.306870121 122.752087443C202.770804588 123.307684738 202.90716861 120.730229287 204.044603019 120.948347813C204.850645738 120.445919001 205.492329192 119.465573007 204.721144811 119.121372242C206.234633359 116.863477256 205.217429588 118.16514209 205.336265848 117.271719414C204.778982061 117.36238005 206.973850167 114.64094818 205.888795901 115.402801935C206.554653601 113.776290354 206.642983647 114.810988187 206.378069565 113.51704962C207.068954362 112.353623827 207.774917611 111.447776544 206.803833569 111.615461568C205.607883759 109.413080905 206.604656169 110.984640661 207.165608541 109.699855894C206.942965622 108.539175307 208.272457825 109.783787106 207.462708128 107.773785222C209.34977212 108.042276006 207.552680951 108.371591395 207.694955795 105.83844974C208.52234272 104.786103717 208.707667122 102.736304495 207.862010341 103.896640745C209.461627052 104.647949557 206.091619932 103.566589536 207.963735612 101.949962268C208.284768326 103.180338084 206.251342509 100.437190918 208.0 100.0C208.084617905 98.7482441821 209.426339024 97.6050701526 207.963331068 98.0087569599C208.482886601 97.9881829726 207.142857085 95.5043656589 207.85840969 96.0210426741C207.488515505 93.5614430343 206.937948698 93.1430048499 207.685348146 94.0381973929C209.499339823 94.8785034471 207.630645359 91.6555402984 207.44425716 92.0618780776C208.322374451 89.5026687734 206.381546747 90.5158999009 207.135378357 90.0945246075C207.291163332 90.4182922123 205.995291703 87.7789156617 206.758955053 88.1381014949C206.550531722 86.9210922877 204.634034503 86.7088007435 206.31576769 86.1966203022C204.213138144 85.0513422178 205.070916155 85.5292069112 205.805982454 84.2707518656C207.359167245 85.3887877893 205.738536595 84.801999477 205.230628147 82.364343566C204.807859805 83.6365536334 203.30320704 79.1649341281 204.59032104 80.4791990616C204.071086894 80.9510883514 205.365880461 77.9592596882 203.88583759 78.617478718C205.026757201 76.9844783129 203.012566379 76.6347763834 203.117384181 76.7798672263C202.371627871 77.054129094 201.365435119 75.233764894 202.286277372 74.9696999311C201.876938088 72.9786779619 203.424943057 73.1034612262 201.394001304 73.1900964322C199.316093361 73.6269913876 202.052380573 72.6352070875 200.441427289 71.4426254627C200.86994365 72.8361623513 199.870794971 70.2379479527 199.429179072 69.7284389419C199.431231334 70.6096331193 198.213382286 70.3001233337 198.358734215 68.0500809056C197.861171293 68.0867771086 197.885973951 68.8544280382 197.231001051 66.4090036593C197.653320271 67.3196185533 197.613365655 64.8254080691 196.04688 64.806641C196.534173911 63.7712738452 195.982913146 62.9707315859 196.04688 64.806641M150.13672 129.0C148.961246616 128.397318183 149.490314092 130.466357845 148.177482548 129.024807703C147.224031468 129.86019579 145.518585236 128.944039046 146.220077933 129.081064419C147.412543278 129.055204051 144.216359499 127.404068894 144.26357063 129.168988096C142.903762339 127.656307472 142.373475709 130.373147939 142.308511414 129.288810198C140.946225378 129.653859827 140.480431774 129.142814696 140.35685308 129.440665292C139.954101739 131.451299713 140.462135485 130.458921321 138.406025607 129.625086977C137.922033401 131.050764481 137.746824649 128.858507068 136.460425235 129.84201575C137.052939266 130.066495366 137.036099797 128.129891904 134.517549217 130.092112858C132.68609233 128.368719356 134.331098481 131.595104897 132.580159536 130.375477617C132.541702346 130.643052532 131.077900892 131.997236173 130.648238492 130.692582076C128.079548745 129.811837012 130.87239654 131.142426764 128.722388281 131.043875075C127.663690408 131.813270284 128.09941993 131.129359434 126.801794347 131.430163411C126.94511378 130.32496523 125.366515073 129.810644732 124.889114044 131.851634545C124.957449702 132.026833648 123.105203982 132.482803988 122.983705405 132.309222273C122.15441672 133.180444673 122.833219959 132.498252651 121.088132467 132.803187176C120.770504301 131.123929217 118.317268813 133.550229024 119.202926562 133.334329541C117.732114923 134.418555516 117.133320867 134.426086703 117.32855721 133.903599921C115.600968244 133.031124728 117.324185121 135.20066592 115.466441088 134.511788502C115.085362128 133.661248924 114.513691904 136.363096052 113.618576136 135.159571529C113.630483963 133.569042416 111.063483341 133.887620267 111.785569103 135.848228043C111.438928441 137.585496766 108.953766094 134.740769347 109.96904033 136.578851621C110.519630234 136.568057518 106.788593899 138.15914863 108.169629672 137.35314229C108.668067615 137.699598363 108.734552779 137.78232599 106.39062 138.17188C106.347141816 139.258568521 106.131094263 139.46235483 107.715428705 139.636441163C109.63414759 139.137551536 107.580879096 140.321408893 109.089503209 141.055305153C111.539771404 142.287215495 111.609651251 143.664565031 110.511606741 142.427043668C112.496981868 143.463789993 111.074476402 142.410391425 111.979750132 143.749631496C113.150743055 145.726930934 114.698711627 145.207988586 113.492115467 145.021400045C114.448906887 147.029186926 115.104986859 146.173588053 115.0459376 146.240107005C116.240240578 148.029082281 117.632365161 147.844828693 116.641196778 147.405762943C116.854682245 148.780706241 118.358031117 149.136298947 118.274565499 148.515939936C120.023935881 148.601113749 117.651416784 149.934927415 119.944871322 149.569904387C121.869635736 150.286578856 119.202429477 149.041319871 121.650702445 150.566735918C122.946979217 150.978380604 121.89118332 150.423479627 123.388365718 151.50432538C124.034638471 151.992899478 124.370685217 152.188187566 125.157912619 152.382721598C124.334199938 150.669604316 126.369958756 152.701997342 126.955720441 153.200107857C126.263330611 153.726037701 127.131946142 153.790082588 128.781162707 153.956184906C129.449464637 155.636945659 130.036335731 156.110359647 130.630607819 154.649431586C132.0432164 154.354717589 132.195524657 154.401453508 132.503421952 155.279590733C132.620289722 156.823528952 134.302929693 156.169461807 134.395062484 155.845158533C136.662077141 155.168198788 137.22683063 155.137755 136.306144293 156.346317796C135.983688018 154.599896309 136.73929281 157.467119831 138.231641181 156.781748172C140.453113569 156.071023506 139.832426072 155.72142218 140.171786217 157.151522322C140.10057284 158.824453255 139.47332835 156.847183347 142.124138963 157.45507982C142.361244006 157.446271571 141.747494876 158.460840424 144.085727102 157.691921104C144.338689537 159.613464861 146.822239378 156.695329189 146.053634608 157.861739781C146.911216157 158.522310894 147.838625381 157.505783663 148.026074776 157.964451116C150.099868029 156.995721438 148.209743804 159.988176182 150.0 158.0C149.841228182 159.768381823 151.746026481 158.68945568 151.996029422 157.962588802C153.360296181 158.980162287 153.327561532 158.682469814 153.989743603 157.856555935C156.484975572 159.687834421 154.401745232 158.771387523 155.979201236 157.681909734C155.253005823 156.676565054 155.821470487 156.357846945 157.961506311 157.438837694C157.455847754 158.936658932 160.034023169 155.971778774 159.934148253 157.127634972C162.165586038 157.464713651 161.38285579 156.204299734 161.893551035 156.748941301C162.181165916 156.228190464 164.615836576 157.721596156 163.839676466 156.302794286C162.886000582 156.335031983 164.064337336 154.571565536 165.768434266 155.79014234C166.988177625 155.721158063 167.56309164 154.957748298 167.678454575 155.211411489C166.613429149 156.565915806 170.225531639 153.50058998 169.568066154 154.567086859C169.463766014 155.138711708 170.136325508 155.153031824 171.433181213 153.858612079C170.940852818 152.3428099 170.947134925 152.135418908 173.273836645 153.08599616C172.853697538 152.421178787 175.432024058 151.780503188 175.086215422 152.250824456C177.250483439 153.272415066 175.10648428 151.126465038 176.869640257 151.353394314C176.98038044 150.740347833 177.867894099 149.430102368 178.621671179 150.394837311C178.541741237 150.124548802 178.914892105 150.271678631 180.339210417 149.376831773C181.795290787 147.922797278 181.439838731 150.641761299 182.020279019 148.300596329C183.968108767 148.435478308 184.323954531 146.203737005 183.663443719 147.167049538C185.491841625 147.244967536 185.08443042 146.009828728 185.266733555 145.977511021C184.283674947 144.44694384 184.629975196 146.583913412 186.82738411 144.734065192C186.708853062 142.921877584 185.899217174 142.005581672 188.344933382 143.437077276C189.840974033 143.829929238 191.184559729 144.155325448 189.817010097 142.088511421C190.12850277 143.384947162 191.301966374 141.728523905 191.241429665 140.69041714C192.451667802 139.602054168 192.170160155 138.891803853 192.61692149 139.244124167C193.498413873 140.223978463 191.519859561 139.133273397 193.94141 137.75195C194.585720864 135.789141585 193.803191866 135.978614713 192.154764769 136.95053156C192.40161752 138.011389735 189.784905985 136.97249687 190.350384837 136.194625127C190.318260353 134.155459769 188.578058269 134.30621505 188.52840229 135.482055167C189.020090994 137.131056604 186.362598642 136.623797832 186.689857381 134.811345292C187.244487845 133.958407187 186.94433084 132.688976516 184.836796745 134.181572897C182.345887857 133.962067016 183.010933061 134.06106489 182.970432736 133.591649556C180.503199463 133.324101371 180.412724756 134.476629757 181.091578556 133.040513133C180.366146681 134.526915396 178.203769745 131.648803886 179.202838019 132.527715338C179.601561626 131.057505013 176.182770664 132.395577284 177.303688296 132.052031059C176.125196224 131.898047091 176.249949428 131.847108867 175.396492041 131.613086857C173.209625931 132.299544997 173.101493555 132.362453186 173.480659118 131.209882899C172.625763349 129.337773344 172.703137368 131.00643472 171.557238239 130.841901262C172.770330603 132.201136444 170.050928837 130.191869406 169.628549722 130.508875836C170.9840602 130.338820681 169.00705681 131.433176145 167.693758687 130.210024818C168.940770971 129.016710913 167.015490017 128.44675491 165.75378021 129.944953103C165.844573985 129.282191085 164.078683493 131.307705745 163.810734049 129.713427132C161.31487686 129.834679852 161.732044095 131.189763384 161.863952494 129.514893035C162.750713246 129.500132993 161.063402512 129.98628005 159.913528777 129.348980489C157.340526483 130.775579069 160.147944682 130.490381859 157.961246486 129.215487006C156.899740249 130.728376551 156.024980291 129.487451525 156.006502167 129.114055511C156.487178496 128.055743603 153.573644985 128.426432467 154.050317385 129.044476247C151.869832789 127.90335852 152.215992983 128.753440046 152.094590438 129.006541946C153.440133122 130.855534273 150.906203443 130.43256814 150.13672 129.0C151.388716465 129.568050418 149.033545424 129.034967994 150.13672 129.0"
       transform="matrix(0.26458333,0,0,0.26458333,0,244.08332)"
       id="path10" />
  </g>
</svg>
